<mxfile host="Electron" modified="2023-08-11T13:48:59.644Z" agent="Mozilla/5.0 (Windows NT 10.0; Win64; x64) AppleWebKit/537.36 (KHTML, like Gecko) draw.io/21.6.8 Chrome/114.0.5735.289 Electron/25.5.0 Safari/537.36" etag="vaHMKTdEyvj8pITyfDNK" version="21.6.8" type="device">
  <diagram name="Seite-1" id="0IFfdod-54p0TsPJ_kV7">
    <mxGraphModel dx="1632" dy="1009" grid="0" gridSize="10" guides="1" tooltips="1" connect="1" arrows="1" fold="1" page="0" pageScale="1" pageWidth="827" pageHeight="1169" math="0" shadow="0">
      <root>
        <mxCell id="0" />
        <mxCell id="1" parent="0" />
        <mxCell id="l7B3wjTZCzkQ3YGv7Hq4-3" value="" style="edgeStyle=none;curved=1;rounded=0;orthogonalLoop=1;jettySize=auto;html=1;endArrow=none;startSize=14;endSize=14;sourcePerimeterSpacing=8;targetPerimeterSpacing=8;sketch=1;curveFitting=1;jiggle=2;endFill=0;" parent="1" source="l7B3wjTZCzkQ3YGv7Hq4-1" target="l7B3wjTZCzkQ3YGv7Hq4-2" edge="1">
          <mxGeometry relative="1" as="geometry">
            <Array as="points">
              <mxPoint x="267" y="210" />
            </Array>
          </mxGeometry>
        </mxCell>
        <mxCell id="hKHzRoV-0fl0CKTny9vH-2" value="" style="edgeStyle=none;curved=1;rounded=0;sketch=1;hachureGap=4;jiggle=2;curveFitting=1;orthogonalLoop=1;jettySize=auto;html=1;fontFamily=Architects Daughter;fontSource=https%3A%2F%2Ffonts.googleapis.com%2Fcss%3Ffamily%3DArchitects%2BDaughter;fontSize=16;endArrow=none;startSize=14;endSize=14;sourcePerimeterSpacing=8;targetPerimeterSpacing=8;endFill=0;" edge="1" parent="1" source="l7B3wjTZCzkQ3YGv7Hq4-1">
          <mxGeometry relative="1" as="geometry">
            <mxPoint x="98" y="-43" as="targetPoint" />
          </mxGeometry>
        </mxCell>
        <mxCell id="l7B3wjTZCzkQ3YGv7Hq4-1" value="You" style="ellipse;whiteSpace=wrap;html=1;sketch=1;curveFitting=1;jiggle=2;fillColor=#b0e3e6;strokeColor=#0e8088;" parent="1" vertex="1">
          <mxGeometry x="26" y="127" width="160" height="100" as="geometry" />
        </mxCell>
        <mxCell id="hKHzRoV-0fl0CKTny9vH-15" value="" style="edgeStyle=none;curved=1;rounded=0;sketch=1;hachureGap=4;jiggle=2;curveFitting=1;orthogonalLoop=1;jettySize=auto;html=1;fontFamily=Architects Daughter;fontSource=https%3A%2F%2Ffonts.googleapis.com%2Fcss%3Ffamily%3DArchitects%2BDaughter;fontSize=16;endArrow=none;startSize=14;endSize=14;sourcePerimeterSpacing=8;targetPerimeterSpacing=8;endFill=0;" edge="1" parent="1" target="hKHzRoV-0fl0CKTny9vH-14">
          <mxGeometry relative="1" as="geometry">
            <mxPoint x="259" y="202" as="sourcePoint" />
          </mxGeometry>
        </mxCell>
        <mxCell id="l7B3wjTZCzkQ3YGv7Hq4-2" value="Spouse" style="ellipse;whiteSpace=wrap;html=1;sketch=1;curveFitting=1;jiggle=2;" parent="1" vertex="1">
          <mxGeometry x="331" y="127" width="160" height="100" as="geometry" />
        </mxCell>
        <mxCell id="hKHzRoV-0fl0CKTny9vH-4" value="" style="edgeStyle=none;curved=1;rounded=0;sketch=1;hachureGap=4;jiggle=2;curveFitting=1;orthogonalLoop=1;jettySize=auto;html=1;fontFamily=Architects Daughter;fontSource=https%3A%2F%2Ffonts.googleapis.com%2Fcss%3Ffamily%3DArchitects%2BDaughter;fontSize=16;endArrow=none;startSize=14;endSize=14;sourcePerimeterSpacing=8;targetPerimeterSpacing=8;endFill=0;" edge="1" parent="1" source="hKHzRoV-0fl0CKTny9vH-1" target="hKHzRoV-0fl0CKTny9vH-3">
          <mxGeometry relative="1" as="geometry" />
        </mxCell>
        <mxCell id="hKHzRoV-0fl0CKTny9vH-1" value="Parent" style="ellipse;whiteSpace=wrap;html=1;sketch=1;curveFitting=1;jiggle=2;hachureGap=4;fontFamily=Architects Daughter;fontSource=https%3A%2F%2Ffonts.googleapis.com%2Fcss%3Ffamily%3DArchitects%2BDaughter;fontSize=20;" vertex="1" parent="1">
          <mxGeometry x="-145" y="-93" width="160" height="100" as="geometry" />
        </mxCell>
        <mxCell id="hKHzRoV-0fl0CKTny9vH-3" value="Parent" style="ellipse;whiteSpace=wrap;html=1;sketch=1;curveFitting=1;jiggle=2;hachureGap=4;fontFamily=Architects Daughter;fontSource=https%3A%2F%2Ffonts.googleapis.com%2Fcss%3Ffamily%3DArchitects%2BDaughter;fontSize=20;" vertex="1" parent="1">
          <mxGeometry x="166" y="-93" width="160" height="100" as="geometry" />
        </mxCell>
        <mxCell id="hKHzRoV-0fl0CKTny9vH-7" style="edgeStyle=none;curved=1;rounded=0;sketch=1;hachureGap=4;jiggle=2;curveFitting=1;orthogonalLoop=1;jettySize=auto;html=1;exitX=0.75;exitY=0;exitDx=0;exitDy=0;entryX=-0.025;entryY=0.587;entryDx=0;entryDy=0;entryPerimeter=0;fontFamily=Architects Daughter;fontSource=https%3A%2F%2Ffonts.googleapis.com%2Fcss%3Ffamily%3DArchitects%2BDaughter;fontSize=16;endArrow=open;startSize=14;endSize=14;sourcePerimeterSpacing=8;targetPerimeterSpacing=8;" edge="1" parent="1" source="hKHzRoV-0fl0CKTny9vH-6" target="l7B3wjTZCzkQ3YGv7Hq4-1">
          <mxGeometry relative="1" as="geometry" />
        </mxCell>
        <mxCell id="hKHzRoV-0fl0CKTny9vH-6" value="root" style="text;strokeColor=none;fillColor=none;html=1;align=center;verticalAlign=middle;whiteSpace=wrap;rounded=0;fontSize=20;fontFamily=Architects Daughter;" vertex="1" parent="1">
          <mxGeometry x="-83" y="214" width="60" height="30" as="geometry" />
        </mxCell>
        <mxCell id="hKHzRoV-0fl0CKTny9vH-8" value="" style="edgeStyle=none;curved=1;rounded=0;sketch=1;hachureGap=4;jiggle=2;curveFitting=1;orthogonalLoop=1;jettySize=auto;html=1;fontFamily=Architects Daughter;fontSource=https%3A%2F%2Ffonts.googleapis.com%2Fcss%3Ffamily%3DArchitects%2BDaughter;fontSize=16;endArrow=none;startSize=14;endSize=14;sourcePerimeterSpacing=8;targetPerimeterSpacing=8;endFill=0;" edge="1" parent="1">
          <mxGeometry relative="1" as="geometry">
            <mxPoint x="409" y="116" as="sourcePoint" />
            <mxPoint x="409" y="-164" as="targetPoint" />
          </mxGeometry>
        </mxCell>
        <mxCell id="hKHzRoV-0fl0CKTny9vH-9" value="" style="edgeStyle=none;curved=1;rounded=0;sketch=1;hachureGap=4;jiggle=2;curveFitting=1;orthogonalLoop=1;jettySize=auto;html=1;fontFamily=Architects Daughter;fontSource=https%3A%2F%2Ffonts.googleapis.com%2Fcss%3Ffamily%3DArchitects%2BDaughter;fontSize=16;endArrow=none;startSize=14;endSize=14;sourcePerimeterSpacing=8;targetPerimeterSpacing=8;endFill=0;" edge="1" parent="1" source="hKHzRoV-0fl0CKTny9vH-10" target="hKHzRoV-0fl0CKTny9vH-11">
          <mxGeometry relative="1" as="geometry" />
        </mxCell>
        <mxCell id="hKHzRoV-0fl0CKTny9vH-10" value="Parent" style="ellipse;whiteSpace=wrap;html=1;sketch=1;curveFitting=1;jiggle=2;hachureGap=4;fontFamily=Architects Daughter;fontSource=https%3A%2F%2Ffonts.googleapis.com%2Fcss%3Ffamily%3DArchitects%2BDaughter;fontSize=20;" vertex="1" parent="1">
          <mxGeometry x="166" y="-214" width="160" height="100" as="geometry" />
        </mxCell>
        <mxCell id="hKHzRoV-0fl0CKTny9vH-11" value="Parent" style="ellipse;whiteSpace=wrap;html=1;sketch=1;curveFitting=1;jiggle=2;hachureGap=4;fontFamily=Architects Daughter;fontSource=https%3A%2F%2Ffonts.googleapis.com%2Fcss%3Ffamily%3DArchitects%2BDaughter;fontSize=20;" vertex="1" parent="1">
          <mxGeometry x="477" y="-214" width="160" height="100" as="geometry" />
        </mxCell>
        <mxCell id="hKHzRoV-0fl0CKTny9vH-14" value="Child 1" style="ellipse;whiteSpace=wrap;html=1;sketch=1;curveFitting=1;jiggle=2;hachureGap=4;fontFamily=Architects Daughter;fontSource=https%3A%2F%2Ffonts.googleapis.com%2Fcss%3Ffamily%3DArchitects%2BDaughter;fontSize=20;" vertex="1" parent="1">
          <mxGeometry x="182" y="345" width="160" height="100" as="geometry" />
        </mxCell>
      </root>
    </mxGraphModel>
  </diagram>
</mxfile>
